<svg id="eAtI1nxk5Y31" xmlns="http://www.w3.org/2000/svg" xmlns:xlink="http://www.w3.org/1999/xlink" viewBox="0 0 1000 1000" shape-rendering="geometricPrecision" text-rendering="geometricPrecision">
<style><![CDATA[
#eAtI1nxk5Y32_to {animation: eAtI1nxk5Y32_to__to 2500ms linear infinite alternate forwards}@keyframes eAtI1nxk5Y32_to__to { 0% {transform: translate(493.815018px,464.569977px);animation-timing-function: cubic-bezier(0.42,0,0.58,1)} 100% {transform: translate(509.815018px,440.245124px)}} #eAtI1nxk5Y32_tr {animation: eAtI1nxk5Y32_tr__tr 2500ms linear infinite alternate forwards}@keyframes eAtI1nxk5Y32_tr__tr { 0% {transform: rotate(0deg);animation-timing-function: cubic-bezier(0.42,0,0.58,1)} 100% {transform: rotate(-3deg)}} #eAtI1nxk5Y33_to {animation: eAtI1nxk5Y33_to__to 2500ms linear infinite alternate forwards}@keyframes eAtI1nxk5Y33_to__to { 0% {transform: translate(493.815018px,464.569977px);animation-timing-function: cubic-bezier(0.42,0,0.58,1)} 100% {transform: translate(509.815018px,440.245124px)}} #eAtI1nxk5Y33_tr {animation: eAtI1nxk5Y33_tr__tr 2500ms linear infinite alternate forwards}@keyframes eAtI1nxk5Y33_tr__tr { 0% {transform: rotate(0deg);animation-timing-function: cubic-bezier(0.42,0,0.58,1)} 100% {transform: rotate(-3deg)}} #eAtI1nxk5Y33 {animation: eAtI1nxk5Y33_s_do 2500ms linear infinite alternate forwards}@keyframes eAtI1nxk5Y33_s_do { 0% {stroke-dashoffset: 2581.64} 20% {stroke-dashoffset: 2581.64;animation-timing-function: cubic-bezier(0.42,0,0.58,1)} 80% {stroke-dashoffset: 5163.28} 100% {stroke-dashoffset: 5163.28}}
]]></style>
<g id="eAtI1nxk5Y32_to" transform="translate(493.815018,464.569977)"><g id="eAtI1nxk5Y32_tr" transform="rotate(0)"><path d="M528.97,754.82c0,0,162.52,6.59,195.03,6.59s51.52-6.83,55.26-29.28c.3-1.99.46-4.01.46-6.02c0-9.79-3.64-19.24-10.21-26.49-6.58-7.26,35.77-15.32,35.77-39.01c0-19.49-12.99-35.74-12.99-35.74s35.74-9.76,35.74-42.3c-.2-14.03-4.75-27.66-12.99-39.01-8.25-11.35,25.98-19.49,25.98-45.5c0-26.02-22.75-55.26-61.76-55.26l-129.92-.01c14.35-46.3,22.12-94.62,22.74-143.06c0-55.26-29.28-91.03-61.76-91.03-26.01,0-22,29.52-26.01,61.79-6.39,49.95-24.22,97.85-52,139.81-20.4,30.61-78.02,91-139.78,109.53-39.9,11.95-74.88,42.82-74.88,84.46v196.15h71.51v-344.44h-162.55v240.57" transform="translate(-533.815018,-504.569977)" clip-rule="evenodd" fill="none" fill-rule="evenodd" stroke="#5588f9" stroke-width="35.25" stroke-linecap="round" stroke-linejoin="round" stroke-miterlimit="2.61313"/></g></g><g id="eAtI1nxk5Y33_to" transform="translate(493.815018,464.569977)"><g id="eAtI1nxk5Y33_tr" transform="rotate(0)"><path id="eAtI1nxk5Y33" d="M528.97,754.82c0,0,162.52,6.59,195.03,6.59s51.52-6.83,55.26-29.28c.3-1.99.46-4.01.46-6.02c0-9.79-3.64-19.24-10.21-26.49-6.58-7.26,35.77-15.32,35.77-39.01c0-19.49-12.99-35.74-12.99-35.74s35.74-9.76,35.74-42.3c-.2-14.03-4.75-27.66-12.99-39.01-8.25-11.35,25.98-19.49,25.98-45.5c0-26.02-22.75-55.26-61.76-55.26l-129.92-.01c14.35-46.3,22.12-94.62,22.74-143.06c0-55.26-29.28-91.03-61.76-91.03-26.01,0-22,29.52-26.01,61.79-6.39,49.95-24.22,97.85-52,139.81-20.4,30.61-78.02,91-139.78,109.53-39.9,11.95-74.88,42.82-74.88,84.46v196.15h71.51v-344.44h-162.55v240.57" transform="translate(-533.815018,-504.569977)" clip-rule="evenodd" fill="none" fill-rule="evenodd" stroke="#fff" stroke-width="35.25" stroke-linecap="round" stroke-linejoin="round" stroke-miterlimit="2.61313" stroke-dashoffset="2581.64" stroke-dasharray="2581.64"/></g></g></svg>
